<?xml version="1.0" standalone="no"?>
<!DOCTYPE svg PUBLIC "-//W3C//DTD SVG 20010904//EN"
 "http://www.w3.org/TR/2001/REC-SVG-20010904/DTD/svg10.dtd">
<svg version="1.0" xmlns="http://www.w3.org/2000/svg"
 width="267.000000pt" height="321.000000pt" viewBox="0 0 267.000000 321.000000"
 preserveAspectRatio="xMidYMid meet">

<g transform="translate(0.000000,321.000000) scale(0.100000,-0.100000)"
fill="#000000" stroke="none">
<path d="M1293 2951 c-18 -20 -41 -47 -50 -61 -9 -14 -19 -27 -22 -30 -3 -3
-23 -26 -44 -52 -21 -26 -44 -53 -51 -60 -7 -7 -17 -20 -22 -29 -12 -20 -69
-91 -111 -137 -18 -19 -33 -38 -33 -41 0 -3 -12 -19 -28 -36 -15 -16 -40 -48
-57 -70 -39 -54 -46 -62 -72 -90 -13 -13 -23 -28 -23 -32 0 -4 -17 -27 -37
-50 -21 -22 -47 -54 -58 -69 -22 -30 -45 -59 -88 -107 -15 -17 -27 -34 -27
-38 0 -3 -13 -22 -30 -40 -16 -19 -30 -39 -30 -44 0 -6 -9 -17 -20 -25 -11 -8
-20 -19 -20 -26 0 -6 -11 -24 -25 -40 -14 -16 -28 -37 -31 -46 -3 -10 -10 -18
-15 -18 -5 0 -9 -6 -9 -14 0 -8 -3 -16 -7 -18 -10 -4 -37 -48 -66 -108 -12
-25 -25 -46 -29 -48 -5 -2 -8 -11 -8 -21 0 -9 -4 -21 -8 -26 -4 -6 -16 -37
-26 -70 -10 -33 -22 -68 -28 -78 -5 -11 -12 -50 -15 -88 -3 -38 -10 -72 -14
-75 -12 -7 -12 -221 -1 -228 5 -3 12 -41 15 -85 4 -44 11 -89 17 -101 5 -11
14 -28 19 -39 5 -10 13 -35 16 -55 4 -20 11 -39 16 -42 5 -3 9 -14 9 -25 0
-10 4 -19 9 -19 5 0 11 -11 15 -23 6 -27 90 -157 130 -202 14 -16 29 -38 32
-47 3 -9 14 -20 24 -23 10 -3 22 -15 25 -26 4 -10 10 -19 14 -19 4 0 25 -16
47 -36 21 -20 57 -48 79 -63 22 -14 49 -34 60 -44 11 -10 30 -20 42 -23 13 -4
23 -10 23 -15 0 -5 9 -9 20 -9 11 0 20 -4 20 -9 0 -5 12 -12 27 -16 15 -3 44
-15 66 -25 21 -11 59 -22 83 -26 24 -3 47 -10 50 -15 3 -5 22 -9 43 -9 20 0
42 -5 48 -11 14 -14 396 -14 401 0 2 6 21 11 42 11 21 0 41 4 44 9 3 4 25 11
50 14 24 4 60 15 78 25 19 11 49 23 66 27 18 3 32 11 32 16 0 5 7 9 15 9 8 0
15 5 15 10 0 6 8 10 18 10 9 0 26 7 37 15 140 103 253 205 293 265 9 14 25 31
34 38 10 7 18 17 18 22 0 4 16 32 35 60 58 87 96 176 147 350 17 60 17 415 0
432 -7 7 -12 25 -12 42 0 44 -33 139 -91 262 -16 34 -29 67 -29 73 0 6 -4 11
-10 11 -5 0 -10 7 -10 15 0 8 -4 15 -9 15 -5 0 -12 11 -15 25 -4 14 -11 25
-16 25 -6 0 -10 7 -10 15 0 8 -4 15 -9 15 -5 0 -13 10 -17 22 -3 12 -17 32
-30 45 -13 13 -24 27 -24 31 0 4 -10 19 -23 34 -12 14 -40 50 -62 78 -22 29
-57 71 -77 93 -21 23 -38 44 -38 48 0 4 -13 20 -28 37 -16 16 -39 44 -53 62
-13 18 -33 42 -45 54 -12 12 -23 27 -25 33 -5 12 -70 92 -116 141 -18 19 -33
38 -33 42 0 3 -15 23 -32 43 -18 20 -49 57 -68 83 -19 25 -43 55 -53 67 -10
12 -31 37 -45 56 -15 18 -34 41 -42 51 -8 10 -33 40 -55 68 -22 28 -44 53 -50
55 -5 3 -25 -12 -42 -32z m57 -469 c8 -9 50 -59 93 -109 42 -51 77 -95 77 -98
0 -3 10 -17 23 -30 38 -40 112 -129 207 -250 38 -49 82 -102 95 -118 14 -15
25 -31 25 -36 0 -5 14 -23 30 -41 17 -18 30 -37 30 -42 0 -6 8 -18 18 -27 10
-9 22 -23 26 -31 3 -8 24 -42 46 -75 61 -94 120 -211 120 -239 0 -14 5 -26 10
-26 6 0 10 -15 10 -34 0 -19 5 -38 10 -41 6 -4 10 -63 10 -146 0 -86 -4 -139
-10 -139 -5 0 -10 -15 -10 -34 0 -19 -4 -37 -9 -40 -4 -3 -11 -20 -15 -37 -7
-38 -95 -194 -134 -238 -62 -71 -110 -119 -138 -137 -16 -10 -33 -24 -37 -31
-4 -7 -16 -13 -25 -13 -10 0 -24 -9 -32 -20 -8 -11 -18 -20 -23 -20 -11 0 -80
-32 -87 -40 -5 -6 -70 -25 -140 -42 -63 -15 -278 -21 -320 -9 -19 5 -64 18
-100 27 -36 10 -85 29 -110 41 -25 13 -51 23 -57 23 -7 0 -13 5 -13 10 0 6 -5
10 -11 10 -9 0 -26 12 -97 65 -59 44 -177 174 -195 215 -6 14 -20 32 -29 41
-10 9 -21 31 -24 48 -4 17 -11 34 -15 37 -5 3 -9 14 -9 24 0 10 -5 20 -10 22
-6 2 -13 34 -17 71 -3 37 -10 70 -14 73 -12 7 -12 211 0 218 4 3 11 32 14 66
4 33 11 68 15 77 5 10 17 32 26 50 9 17 16 38 16 47 0 9 5 16 10 16 6 0 10 7
10 15 0 8 4 15 9 15 5 0 12 10 15 23 3 12 26 49 51 82 24 33 53 71 62 85 10
13 26 32 36 42 9 10 17 22 17 28 0 5 10 20 23 33 12 14 33 39 47 56 14 18 31
38 38 46 6 7 12 16 12 20 0 4 6 12 13 20 6 7 21 26 32 41 11 16 32 42 48 57
15 16 27 31 27 34 0 3 12 20 28 38 51 61 97 118 106 134 5 8 19 25 30 37 12
12 30 34 41 50 11 15 31 39 44 53 13 14 30 36 38 49 18 27 24 27 43 4z"/>
<path d="M913 1627 c-24 -6 -43 -14 -43 -19 0 -4 -7 -8 -15 -8 -29 0 -100 -68
-141 -135 -42 -69 -57 -129 -51 -211 6 -93 14 -120 54 -182 37 -58 593 -622
613 -622 14 0 600 584 600 598 0 5 8 17 18 28 43 48 61 218 32 314 -23 78 -88
161 -153 197 -18 10 -34 21 -37 24 -3 3 -33 12 -68 19 -52 11 -75 11 -133 0
-38 -7 -69 -16 -69 -19 0 -3 -13 -12 -30 -19 -53 -24 -140 -121 -140 -156 0
-27 -30 -27 -40 0 -6 14 -10 27 -10 30 0 11 -69 86 -106 114 -70 54 -178 72
-281 47z"/>
<path d="M2650 1728 c0 -7 5 -20 10 -28 8 -12 10 -9 10 13 0 15 -4 27 -10 27
-5 0 -10 -6 -10 -12z"/>
</g>
</svg>
