<?xml version="1.0" encoding="UTF-8"?>
<svg id="Capa_2" xmlns="http://www.w3.org/2000/svg" viewBox="0 0 893.95 795.43">
  <defs>
    <style>
      .cls-1, .cls-2, .cls-3, .cls-4, .cls-5, .cls-6, .cls-7, .cls-8, .cls-9, .cls-10, .cls-11, .cls-12, .cls-13, .cls-14, .cls-15, .cls-16, .cls-17 {
        stroke-miterlimit: 10;
      }

      .cls-1, .cls-5, .cls-10 {
        fill: none;
      }

      .cls-1, .cls-9 {
        stroke: #dca970;
      }

      .cls-18 {
        fill: #293649;
      }

      .cls-19 {
        fill: #263d7a;
      }

      .cls-2 {
        fill: #eca272;
        stroke: #d09166;
      }

      .cls-3 {
        fill: #e18931;
        stroke: #bf7628;
      }

      .cls-4 {
        stroke: #d4a96c;
      }

      .cls-4, .cls-20 {
        fill: #f0be79;
      }

      .cls-21 {
        fill: #82cdf3;
      }

      .cls-5 {
        stroke: #555ba5;
      }

      .cls-22 {
        fill: #1d1d1b;
      }

      .cls-6 {
        fill: #b899c8;
        stroke: #795e94;
      }

      .cls-7 {
        fill: #8d5e4f;
      }

      .cls-7, .cls-10, .cls-13 {
        stroke: #c876af;
      }

      .cls-8 {
        fill: #757dbc;
        stroke: #555ba6;
      }

      .cls-23 {
        fill: #d29ac5;
      }

      .cls-9 {
        fill: #f6bc7c;
      }

      .cls-24 {
        fill: #92c35b;
      }

      .cls-25 {
        fill: #419c3b;
      }

      .cls-26 {
        fill: #e9d0af;
      }

      .cls-11 {
        fill: #24363d;
        stroke: #142226;
      }

      .cls-27 {
        fill: #e9cc34;
      }

      .cls-28 {
        fill: #365fa9;
      }

      .cls-12 {
        fill: #2c3151;
        stroke: #191a2f;
      }

      .cls-29 {
        fill: #d2112a;
      }

      .cls-13 {
        fill: #644336;
      }

      .cls-30 {
        fill: #3755a1;
      }

      .cls-31 {
        fill: #bda8c1;
      }

      .cls-14 {
        fill: #f1d925;
        stroke: #ecbc43;
      }

      .cls-15 {
        fill: #f0a179;
        stroke: #cc8a68;
      }

      .cls-16 {
        fill: #6b4796;
        stroke: #253d7a;
      }

      .cls-16, .cls-17 {
        stroke-width: .71px;
      }

      .cls-17 {
        fill: #ca78ae;
        stroke: #8b5772;
      }

      .cls-32 {
        fill: #f59d2c;
      }

      .cls-33 {
        fill: #e64c33;
      }

      .cls-34 {
        fill: #b21828;
      }
    </style>
  </defs>
  <path class="cls-26" d="M871.9,331.46c-7.25,1.05-7.76,16.79-15.9,32.9-9.23,18.26-21.56,23.71-28.62,31.68-29.69,33.54,8.31,140.78,34.98,139.57,33.09-1.5,40.91-169.73,19.99-197.14-1.53-2-5.85-7.67-10.45-7Z"/>
  <path class="cls-32" d="M381.99,44.51c4.09-.56,9.72,2.28-31.32,42.73-34.12,33.62-63.4,71.9-86.29,113.99-.74,1.36-1.48,2.73-2.21,4.09-15.34,28.77-48.84,42.95-80.15,33.86-7.07-2.05-14.84-4.8-23.35-8.38-5.51-2.32-8-8.73-5.6-14.21,15.87-36.19,80.06-159.49,222.11-171.21,2.28-.19,4.54-.56,6.81-.87Z"/>
  <path class="cls-24" d="M106.57,352.38c1.12-8.2,2.46-56.14,20.92-68.61,44.6-30.11,70.47,77.45,167.99,50.77,0,0,74.96-24.4,65.8,63.97-1.89,18.23-6.97,35.97-14.63,52.62-18.86,40.99-78.16,113.83-19.83,177.81,22.18,24.32,35.66,38.38,55.19,85.17,7.18,17.21,15.62,47.59,17.66,67.08.93,8.94-7.37,16.08-16.07,13.81-195.2-50.87-304.23-244.35-277.03-442.63Z"/>
  <path class="cls-21" d="M652.51,771.35c-17.25-12.18,21.85-61.96,0-130.82-10.76-33.92-31.21-56.37-40.88-66.77-53.37-57.41-113.92-53.63-114.98-76.31-1.21-25.88,76.77-48.53,123.16-62,80.92-23.5,121.38-35.26,151.26-12.95,33.57,25.07,45.98,77.89,43.61,133.55-1.44,33.71,5.09,102.29-38.95,139.57-49,41.48-105.25,88.41-123.22,75.73Z"/>
  <path class="cls-34" d="M642.73,43.33c-11.24-4.21-69.36-15.53-104.18-15.46-14.05.03-24.86,12.43-23.02,26.36l3.59,27.13c.15,1.1.23,2.21.31,3.32,3,41.09,59.74,49.86,41.01,72.44-11.25,13.57-12.41,33.58-27.5,42.69-10.16,6.13-23,16.44-32.07,32.93-4.12,7.5-18.17,33.03-8.7,55.47,6.66,15.79,18.93,15.77,31.31,33.92,7.82,11.46,11.17,23.57,12.59,33.61,1.03,7.29,5.53,13.6,12.02,17.07,8.71,4.65,20.47,8.74,33.66,7.11,11.79-1.46,20.86-7.01,33.48-14.74,13.89-8.5,23.73-17.84,25.47-19.46,13.66-12.77,16.33-20.64,39.1-33.04,39.73-21.62,87.05-27.84,109.4-29.62,9.4-.75,23.86-5.05,32.07-9.68,14.29-8.05,8.66-11.5,17.9-27.65,3.89-6.79,4.02-15.12.26-21.99-60.07-109.9-145.8-161.38-196.71-180.42Z"/>
  <path class="cls-18" d="M399.74,541.05s75.16,53.15,39.5,147.17c-77.85-45.03-92.89-101.75-39.5-147.17Z"/>
  <path class="cls-15" d="M724.1,24.73c3.87,1.34,7.08,6.45,9.03,7.58,3.86,2.24,4.84-1.03,7.69-.48,1.14.22,2.19,2.17,7.49.94,2.68-.62,7.43-6.51,11.75-8.03.64,1.49.43,6.87.89,9.54.15.83-.08,3.92-.13,5.99-.01.55-.8,7.17-3.58,10.9-4.5,6.05-15.45,6.94-22.4,2.81-4.32-2.57-6.47-6.72-7.67-9.03-2.07-4-2.61-7.62-2.98-10.22-.58-4.11-.4-7.58-.12-9.99Z"/>
  <path class="cls-6" d="M676.57,168.39c-.74.37-1.25,1.07-1.39,1.88-1.97,11.19-5.57,19.06-8.64,24.31-1.92,3.29-4.88,8.43-7.9,16.35-1.56,4.09-2.59,7.58-3.24,10.01-.05.2-.08.4-.08.61l-.04,2.05c-.05,2.21,2.55,3.43,4.22,1.98.02-.02.04-.03.06-.05,17.74-15.33,45.16-34.39,50.45-48.22.38-.98.62-1.9.83-2.83,1.09-4.91-6.98-13.09-10.25-16.16-.79-.74-1.95-.91-2.92-.43l-21.09,10.49Z"/>
  <path class="cls-8" d="M705.32,20.56c-5.03-7.64-19.02-25.24-37.66-18.59-12.2,4.35-16.69,16.9-17.74,29.81-1.32,16.28,11.65,125.05,24.38,137.19,5.18,4.94,12.49-1.1,12.49-1.1,0,0,8.29-2.59,11.36-10.77,0,0,6.47-42.58,1.36-54.17,0,0,18.56,14.13,22.96,32.64.8,3.38.68,6.91-.34,10.24-4.45,14.59-19.69,64.27-24.32,74.99,0,0-13.97,47.01,34.07,29.64,48.04-17.37,49.4-140.7,49.4-140.7l-70.26-81.59c-2.07-2.4-3.96-4.95-5.7-7.6Z"/>
  <path class="cls-12" d="M224.2,539.05c-3.79,1.49-12.58,5.3-21.61,11.77-.23.16-.45.33-.68.49-1.39,1.01-2.78,2.09-4.16,3.23-4.4,3.65-9.06,6.98-14.04,9.8l-7.13,4.03c-7.89,4.46-14.92,10.29-20.78,17.2l-1.87,2.21h33.93l38.29-35.49s12.6-12.88,3.15-13.98c-1.73-.2-3.48.1-5.1.74Z"/>
  <path class="cls-12" d="M213.29,564.21s16.01-25.9-10.7-13.39"/>
  <path class="cls-20" d="M33.67,455.88s6.41,15.61-8.52,26.74l14.7,6.19h17.16v-27.25l-23.34-5.68Z"/>
  <path class="cls-23" d="M114.24,310.75s-63.37,78.36-74.95,145.13c0,0,13.46,10.73,15.5,19.42.85,3.92.08,6.54-3.41,9.37-5.29,4.29-24.24,4.14-24.24,4.14-1.41,17.78-1.45,59.71,22.87,97.97,20.11,31.64,47.1,46.05,75.12,60.56,21.67,11.22,56.85,26.41,104.48,34.09,26.96,4.34,53.65,10.07,80.1,16.85,4.37,1.12,8.28,1.79,11.65,2.21,23.02,2.87,35.02-4.31,62.51-4.26,9.14.02,17.4.83,24.52,1.95,11.29,1.78,22.76-1.87,30.84-9.95h0s-125.34-66.77-39.5-147.17c-17.13,7.7-36.23,15.23-57.22,21.98-39.57,12.72-75.98,19.48-107,22.99-26.12.68-52.24,1.36-78.36,2.04-11.03-.77-25.46-3.53-40.2-11.58-17.24-9.42-26.33-21.42-37.47-36.11-11.14-14.69-17.5-23.34-17.72-36.11-.04-2.46-.33-19.84,10.22-26.57,15.88-10.13,52.65,23.34,55.19,19.42.34-10.9-23.02-24.38-39.52-49.4-8.03-12.17-1.95-39.08,7.77-61.34,7.15-16.38,12.22-33.58,14.99-51.24l3.82-24.38Z"/>
  <path class="cls-4" d="M143.99,551.27l17.94,24.53s12.87,3.61,21.8-3.63c3.77-3.06,8.29-5.28,8.63-11.13v-34.58l-26.69,11.52s4.43,17.49,16.24,25.21c0,0,5.5,2.85,8.6,3.08-14.14-3.56-20.94-14.46-24.83-28.29l-21.69,13.29Z"/>
  <path class="cls-22" d="M28.07,449.67c-9.41-2.83-21-3.1-26.59,11.49-4.09,10.67.79,22.54,8.97,29.1l26.98,19.78s16.69,13.63,17.2,30.49c.51,16.86,8.69,22.66,8.69,22.66l3.58-6.13s-.34.68-2.56-4.77c-4.43-9.37-4.43-19.59-4.43-19.59-.42,2.9,6.93,23.1,7.84,22.26l3.28-2.41s-5.63-27.14-14.87-44.38c-10.22-19.08-31-25.55-31-25.55,7.26-4.64,11.74-11.43,10.22-22.83,0,0,38.8,17.77,44.63,18.74,7.15,1.19,35.94,1.37,35.94,1.37v-9.38s-3.47,1.82-6.13,1.82-11.27-3-11.27-3c0,0,6.83,1.26,12.29.51l-2.21-4.26-47.69-8.39c-11.08-1.95-22.09-4.29-32.86-7.53Z"/>
  <path class="cls-3" d="M208.95,517.2c-10.69-31.42-18.14-54.09-20.78-65.07-.73-3.02-2.58-11.35-8.86-19.76-2.1-2.82-4.12-4.88-5.45-6.13-1.49-1.09-7.73-5.37-16.35-4.43-6.85.75-11.35,4.37-12.95,5.79-4,3.97-8.61,9.14-12.01,16.1-5.45,11.16-9.79,28.53-5.37,53.4-2.8-4.06-7.66-9.96-15.33-14.65-10.38-6.35-30.03-13.02-41.56-4.09-12.79,9.9-8.29,33.3-7.15,39.18,6.52,33.89,37.94,62.82,72.06,68.02,8.3,1.26,12.41,1.98,18.74,2.22,2.73-3.29,8.37-8.1,11.09-11.39-7.65-6.4-13.83-14.07-18.6-22.96,5.53-6.17,12.03-11.39,19.25-15.45l-16.35-67.45,16.35,67.45,43.27-20.78Z"/>
  <path class="cls-3" d="M94.82,499.49s3.75,48.27,51.61,53.94"/>
  <path class="cls-5" d="M665.45,38.21c2.43,7.53,6.75,18.45,14.65,29.98,8.08,11.79,16.2,18.79,19.78,22.07,9.92,9.09,22.49,22.15,34.67,47.62,2.98,6.23,3.66,13.32,1.95,20.02-.01.05-.02.1-.04.15-.5,1.95-5.74,11.28-27.75,45.73"/>
  <path class="cls-10" d="M764.59,168.97s7.5-35.71-5.11-83.41"/>
  <path class="cls-11" d="M757.15,33.43l-4.98,2.27c-1.48.67-2,2.55-1.01,3.84.37.49.93.97,1.74,1.41,2.67,1.43-2.18.61-4.38.2-.18-.03-.53-.24-.93-.54-1.53-1.12-2.78-2.59-3.72-4.23l-1.28-2.24s-2.82,1.82,0,4.09c2.35,1.89-2.8-.32-4.58-1.11-.06-.03-.17-.08-.29-.16-1.29-.77-2.35-1.87-3.12-3.16l-1.45-1.48c-.31-.39-1.5-.92-2.72-1.46l-2.88-1.2c-2-.84-3.34-2.75-3.43-4.92-.2-4.72.15-12.67,4.37-14.96,6.13-3.32,2.98,1.96,2.98,1.96,0,0,4.24-1.58,2.3-4.43-3.49-5.11,11.58-5.88,11.58-5.88.5-.11,8.44-.28,13.03,4.17.55.53,1.1,1.18,1.63,1.91,0,0,8.93,6.78,5.44,15.55-2.64,6.64-.26,6.94,1.06,6.69.21-.04.35.21.19.36-1.41,1.36-5.18,4.06-6.11-4.71-.04-.33-.46-.46-.65-.19-.75,1.02-1.9,3.06-1.32,5.33.3,1.18-.35,2.4-1.46,2.9Z"/>
  <path class="cls-13" d="M695.09,464.06s-41.22,1.6-36.23-4.76c5-6.37,27.93-28.19,27.93-28.19,11.91,3.42,14.13,14.85,8.29,32.95Z"/>
  <path class="cls-7" d="M558.82,28.33l31.38,8.49c13.1,3.54,26.71,4.78,40.23,3.57,14.27-1.28,34.94-1.2,52.88,6.34,16.2,6.81,27.58,21.82,30.3,39.18,5.96,38.01,18,51.78,29.17,56.56,5.53,2.36,13.59,3.69,18.44,11.01,6.73,10.16,2.21,24.22-1.06,33.62-14.78,42.47-34.36,76.95-41.22,88.92-23.66,41.26-27.65,46.54-32.36,52.12-17.43,20.68-35.87,34.06-49.06,42.24,12.04,9.54,20.95,18.74,27.13,25.81,8.34,9.54,14.01,16.04,18.86,26.66,3.79,8.3,5.98,16.7,7.84,23.85,1.84,7.08,3.01,13.08,3.75,17.37,3.14-1.29,6.73-3.2,10.56-5.75,5.71-3.79,16.01-12.48,19.42-19.8,0,0,88.24-139.34,89.6-254.15,0,0,5.11-119.58-53.83-144.11,0,0-3.08,16.78-21.8,15.59-9.37-.6-15.93-20.14-14.65-27.51,2.78-15.91-166.41-8.2-165.57,0Z"/>
  <path class="cls-9" d="M543.24,413.46s51.52-34.35,39.17-6.18c-12.35,28.17-39.17,6.18-39.17,6.18Z"/>
  <path class="cls-2" d="M637.52,370.37s-18.4,27.25-42.24,33.95c-17.1,4.81-37.77,6.17-52.03,9.13-12.08,2.5-23.47,7.57-33.41,14.87l-14.65,10.75c-18.33,13.45-35.42,28.5-51.09,44.97h0c-2.82,2.97-3.54,7.48-1.49,11.03.02.03.04.06.05.09,3.02,5.11,10.4,7.52,18.08,5.37,68.51-16.43,137.02-32.86,205.53-49.29l20.54-20.15c5.56-26.13-13.64-45.63-49.28-60.73Z"/>
  <path class="cls-9" d="M399.74,541.05c17.09-5.43,28.97-12.55,36.3-17.65,22.72-15.82,26.18-29.27,58.35-55.99,7.28-6.04,14.03-11.11,21.62-16.05,12.2-7.93,20.06-13.17,31.59-17,13.6-4.51,24.75-4.65,38.81-4.83,10.13-.13,19.31-.24,31.12,2.5,5.06,1.17,12.99,4.42,28.84,10.9,14.77,6.04,30.66,12.95,30.66,12.95h0c2.22,2.31,2.84,5.72,1.59,8.63-1.21,2.81-3.96,4.67-7.04,4.77.05.58.35,4.6-2.73,7.72-3.48,3.53-8.2,2.8-8.63,2.73-13.48-1.36-34.22-4.54-47.69-5.91.84,3.11,1.04,6.01-1.14,8.18,5.87,4,6.6,7.97,1.56,11.9-2.64,2.05-5.9,3.13-9.24,3.33l-63.64,3.73c-13.19.77-26.09,4.16-38,9.88-24.95,11.97-49.24,19.27-72.83,21.58l-15.22,21.58-3.83,15.9h56.53l-36.11,22.71-3.86,11.81,14.54.91-61.51,28.31c-17.07-31.72-13.02-64.82,19.97-92.59Z"/>
  <path class="cls-1" d="M532.82,484.27c30.51-3.6,57.72-5.02,78.58-2.27"/>
  <path class="cls-1" d="M547.12,453.38l60.61-4.03c2.87-.19,5.75.19,8.47,1.11l55.38,18.81"/>
  <path class="cls-1" d="M536.9,470.65h63.92c3.23,0,6.41.71,9.34,2.07l2.38,1.11"/>
  <path class="cls-2" d="M614.34,492.66c3.08,17.73-18.09,28.96-24.51,36.46-5.48,6.4-14.31,17.26-25.24,28.28-2.63,2.65-6.99,6.94-12.92,11.92-5.49,4.62-9.76,7.68-10.9,8.52-6.2,4.54-16.83,14.16-36.11,36.79-.41.65-6.35,9.4-13.26,8.84-1.1-.09-2.22-.61-3.44-1.69-3.07-2.73,1.74-10.05,2.73-11.92,7.78-16.25,12.57-21.92,15.67-23.17,6-2.4-56.87,15.52-72.04,19.85-2.99.85-6.13,1.13-9.18.56-4.12-.77-7.43-2.75-8.03-6.79-.75-5,1.98-10.15,6.81-12.61,6.41-2.16,13.13-4.64,20.1-7.49,8.17-3.35,15.75-6.84,22.71-10.33-17.7,2.14-32.77,3.96-50,6.05-4.75.57-9.61.02-14-1.87-2.46-1.06-4.44-2.43-4.37-4.06-.62-9.88,4.91-10.99,15.67-16.01-.33-1.86-9.54-3.07-4.77-11.58,3.2-8.39,16.43-8.64,17.37-8.86,13.31-.41,30.11-4.66,53.49-14.31,21.6-8.92,29.64-13.29,50.44-17.27,30.28-5.79,64.71,2.28,83.78-9.32Z"/>
  <path class="cls-2" d="M536.9,512.44c-25.78,26.66-64.3,42.57-122.87,41.56"/>
  <path class="cls-2" d="M547.12,531.56s-37.59,30.73-80.4,38.33"/>
  <path class="cls-2" d="M558.82,546.16s-24.53,25.21-52.46,40.54"/>
  <path class="cls-31" d="M565.4,233.88c2.51-5.17,4.67-10.53,8.46-15,1.14-1.34,2.27-2.66,3.72-3.66,1.9-2.75,5.37-4.14,6.55-7.52,1.16-2.31,2.33-4.6,4.75-5.94,2.22-1.23,4.32-.87,5.98.76,1.63,1.6.68,3.46-.29,5.11-1.03,1.77-2.36,3.4-2.55,5.55-2.44,1.47-1.55,4.69-3.72,6.66-1.4,1.28.27,4.35.73,6.57.46,2.2,1.36,4.32,2.14,6.45,2.6,7.05,7.28,9.25,14.65,6.95,2.18,0,4.36,0,6.54,0,1.34,4.35-1.75,6.59-4.31,9.09-1.5.09-2.68,1.03-4.03,1.51-5.32,1.9-10.59,4.2-16.38,1.64-1.19-.52-2.01-.19-1.65,1.43.38,1.71.69,3.44.94,5.17,1.15,8.03.32,16.06-.17,24.08-1.4,5.91-2.84,11.82-4.19,17.74-.37,1.63-.78,3.22-1.56,4.68-1.43,2.68-4.69,2.88-6.07.15-1.33-2.63-2.37-3.41-4.48-.76-1.11,1.39-2.61,2.37-4.64,1.63-2.24-.81-2-2.68-1.91-4.42.6-11.68.4-23.31-1.77-34.85-.26-1.39,0-2.88.02-4.33,3.18,1.15,6.14.85,9.18-.81,3.66-2,6.88-4.49,9.73-7.48,2.11-2.22,5.21-4.3,1.95-7.9-.09-.1.03-.4.05-.6-2.23-6.72-4.45-13.44-6.68-20.16-.67,3.75,1.14,6.96,1.44,10.45-.84,1.04-1.78,2.02-2.51,3.14-3.21,4.95-6.97,9.49-10.74,14.02-.56.68-1.16,1.74-2.24,1.16-.87-.47-.35-1.47-.35-2.27.06-6.29,2.03-12.21,3.41-18.25ZM570.32,265.4c2.66,11.37,3.77,22.82,2.92,34.46,2.45-11.81,1.95-23.36-2.92-34.46Z"/>
  <path class="cls-25" d="M586.76,282.72c.5-8.02,1.32-16.05.17-24.08-.25-1.73-.55-3.46-.94-5.17-.36-1.62.46-1.96,1.65-1.43,5.79,2.56,11.07.26,16.38-1.64,1.35-.48,2.53-1.42,4.03-1.51,1.84,7.47,1.34,15.03.46,22.53-.92,7.84-1.43,15.66-1.23,23.55.08,2.99-.2,6-.32,9-.06,1.42-.45,2.71-1.88,3.3-1.49.61-2.98.33-3.97-.89-1.16-1.43-1.84-1.46-3.31-.18-1.82,1.57-4.02.56-5.38-2.27-2.53-5.26-3.86-10.91-4.94-16.61-.29-1.52-.48-3.07-.71-4.6Z"/>
  <path class="cls-25" d="M583.06,245.79c-.02.2-.14.5-.05.6,3.27,3.6.17,5.68-1.95,7.9-2.85,2.99-6.07,5.48-9.73,7.48-3.04,1.66-5.99,1.96-9.18.81-.31-.78-.68-1.46-1.52-1.86-4.25-2.05-5.21-5.78-4.44-9.92,1.23-6.57,4.67-12.07,9.2-16.92-1.39,6.04-3.35,11.96-3.41,18.25,0,.8-.53,1.8.35,2.27,1.08.58,1.68-.48,2.24-1.16,3.76-4.53,7.52-9.06,10.74-14.02.73-1.12,1.67-2.1,2.51-3.14,1.56.85,1.55,2.55,2.12,3.93.84,2.03,1.12,4.37,3.12,5.77Z"/>
  <path class="cls-25" d="M605.82,239.81c-7.37,2.3-12.05.1-14.65-6.95-.79-2.13-1.68-4.25-2.14-6.45-.47-2.22-2.13-5.29-.73-6.57,2.17-1.98,1.28-5.19,3.72-6.66,6.25,4.61,9.64,11.13,12.13,18.23.44,1.26.55,2.64,1.56,3.64-.2,1.14-.16,2.24.49,3.25-.43.43-.46.96-.37,1.52Z"/>
  <path class="cls-25" d="M584.12,207.7c-1.18,3.38-4.64,4.77-6.55,7.52-2.57-2.66-3.64-5.92-3.66-9.53,0-1.57.29-3.09,2.01-3.83,1.74-.74,3.24-.22,4.57.91,1.59,1.35,2.65,3.12,3.63,4.94Z"/>
  <path class="cls-31" d="M606.2,238.3c-.64-1.01-.69-2.11-.49-3.25,2.7.06,5.41.1,6.4,3.4-1.97-.05-3.94-.1-5.91-.15Z"/>
  <path class="cls-30" d="M606.2,238.3c1.97.05,3.94.1,5.91.15.09.45.17.91.26,1.36-2.18,0-4.36,0-6.54,0-.09-.56-.05-1.09.38-1.52Z"/>
  <path class="cls-30" d="M570.32,265.4c4.86,11.1,5.37,22.65,2.92,34.46.85-11.64-.26-23.09-2.92-34.46Z"/>
  <path class="cls-30" d="M583.06,245.79c-2-1.41-2.28-3.74-3.12-5.77-.57-1.38-.56-3.08-2.12-3.93-.3-3.49-2.11-6.7-1.44-10.45,2.23,6.72,4.45,13.44,6.68,20.16Z"/>
  <path class="cls-31" d="M187.7,308.52c-.18.1-.35.19-.53.29.18-.1.35-.19.53-.29Z"/>
  <g>
    <path class="cls-14" d="M268.59,324.56c-.29-3.14.12-6.16,1.43-9.05,2.9.07,3.4,1.82,2.73,4.15-.3,1.04-1.02,1.96-1.55,2.94,0,0,.05-.05.05-.05-.88.67-1.77,1.34-2.65,2.01Z"/>
    <g>
      <path class="cls-33" d="M178.99,322.56c-1.22.9-2.52,1.62-3.86.37-1.03-.95-1.88-.16-2.84,0-2.25.36-3.06-.64-2.33-2.79.06-.19.31-.38.28-.53-.89-5.23,2.41-6.84,6.6-7.69.17-.1.35-.19.53-.29,0,0,.16-.1.15-.1,1.06.02,2.71-.56,2.89.82.29,2.19,2.3,3.52,2.39,5.7-.63,1.38-2.89,1.3-2.9,3.24-.3.43-.61.86-.91,1.3ZM175.81,318.59c.77-.22,1.7-.7,1.74-1.88.03-.79-.62-1.28-1.44-1.23-1.16.07-1.91.72-1.97,1.9-.04.87.54,1.24,1.67,1.21Z"/>
      <g>
        <path class="cls-14" d="M205.28,312.62c1.64-.45,1.12-1.66,1.01-2.76-.16-1.54-.4-3.09-.3-4.62.15-2.45,1.2-4.42,3.86-4.93,2.91-.55,5.08,1.28,5.25,3.61.39,5.32,3.96,7,7.98,8.87,6.18,2.87,11.57,7.14,17.43,10.61,2.85,1.69,5.35,2.45,8.62.62,5.11-2.87,10.53-5.19,15.82-7.75,1.49.74,2.52,1.79,2.05,3.6-.66,2.58-.48,5.24-.81,7.85-4.79,3.27-8.81,7.48-13.48,10.94-4.13,3.06-8.28,3.37-12.86,1.68-2.04-.75-4.06-1.56-6.09-2.32-1.5-.56-2.71-.66-2.27,1.59,1.13,5.87,2,11.74,4.4,17.38,5.2,12.23,9.34,24.8,9.43,38.33.02,3.42.05,6.84.07,10.26.02,2.61-.43,5.13-1.13,7.65-.65,2.32-2.28,3.23-4.36,3.22-2,0-2.68-1.73-3.07-3.4-1.3-5.54-2.44-11.12-3.83-16.63-1.79-7.1-6.87-17.13-10.66-21.24-.56,2.25-1.15,4.28-1.58,6.34-2.51,11.97-7.89,22.83-13.11,33.75-.79,1.65-2.08,3.1-3.34,4.45-1.11,1.18-2.45,2.56-4.3,1.7-1.86-.87-3.1-2.36-3.08-4.63.05-5.1,1.21-10.05,2.13-15.02,1.93-10.38,3.48-20.8,4.18-31.35.09-1.38-.12-2.67-.42-3.98.04-.58.09-1.16.13-1.74.69-3.1.34-6.22,0-9.3-.61-5.46-.69-5.45-5.56-2.81-1.66-.32-2.18.9-2.75,2.04-4.09,1.04-8.18,2.12-12.28,3.12-3.04.74-6.12,1.06-9.24.71-2.55-.28-3.9-1.61-3.84-4.31.05-2.35.61-4.55,2.03-6.4,3.51-4.59,7.14-9.1,10.71-13.64.58-.74,1.12-1.5,2.12-1.71,2.04,2.25,2.68,5.31,4.5,7.67.55.71.92,2.22,2.27,1.4,1.3-.79.3-1.82-.14-2.67-1.56-2.99-3.16-5.95-4.75-8.92.91-1.17,1.83-2.34,2.74-3.51,1.55,3.84,2.46,7.86,3.44,11.86.19.76-.04,1.75,1.25,1.7,3-.13,5.55-2.25,5.81-5.25.15-1.72.87-2.87,2.1-3.92,2.45-2.1,4.53-4.52,6-7.42.29-.57,1.04-1.21.14-1.9-.69-.53-1.4-.36-2,.13-1.12.91-2.18,1.89-3.26,2.84-.46.4-.9.91-1.61.6-.69-.31-.67-.99-.67-1.6.01-1.96.14-3.93-.59-5.82,2.81-.04,5.27-.52,5.24-4.15.24-.28.47-.57.71-.85,0,0-.02.02-.02.02Z"/>
        <path class="cls-25" d="M266.18,327.73c.33-2.61.14-5.27.81-7.85.46-1.81-.56-2.86-2.05-3.6-2.13-2.65-2.98-5.83-3.71-9.05-.1-.46-.12-1.16.15-1.43.52-.52,1.12-.03,1.65.28,1.99,1.17,2.72,3.31,3.83,5.13,1.13,1.85,1.81,1.64,2.54-.18.57-1.43,1.18-2.85,1.77-4.28,0,0,.24.02.24.02h.25c-.22,2.97-1.99,5.66-1.65,8.76-1.3,2.89-1.72,5.91-1.43,9.05-.38,1.1-.97,2.19-.18,3.75.74-2.31,2.51-3.66,2.83-5.76l-.05.05c2.01-.13,2.64-2.11,4.06-3.06,1.19-.79,2.14-1.95,4.15-1.8-1.45,5.27-4.36,9.51-8.84,12.16-2.68,1.59-3.23,3.33-3.03,5.98.12,1.5.02,3.02-.29,4.56-1.8-4.1-.72-8.47-1.07-12.7Z"/>
        <path class="cls-30" d="M271.66,306.74h-.25s-.25,0-.24,0c-2.4-.6-2.56-3.72-4.91-4.42-.11-.03-.2-.73-.07-.84,1.71-1.42,2.88-3.42,4.45-4.82,1.56-1.41,4.18-1.8,6.3-.09.43.35.87.48,1.41.46,1.27-.05,2.63,0,3.09,1.44.45,1.39-.78,1.95-1.7,2.6-.55.39-.74.93-.73,1.6.02,1.75-1.21,2.53-2.61,2.36-1.98-.24-3.32.71-4.74,1.72ZM273.96,302.3c.77-.35,1.76-.78,1.77-2.03.01-.95-.73-1.19-1.52-1.12-1.2.1-1.91.77-1.94,2-.02.95.61,1.21,1.68,1.16Z"/>
        <path class="cls-25" d="M178.99,322.56c.3-.43.61-.86.91-1.3,2.21,2.74,3.54,6.11,6.08,8.62,1.59,2.97,3.19,5.94,4.75,8.92.44.85,1.44,1.88.14,2.67-1.35.82-1.72-.69-2.27-1.4-1.82-2.36-2.46-5.43-4.5-7.67-.49-1.8-1.87-1.93-3.41-1.86-3.31.14-6.27-.78-9.05-2.99,2.51-1.87,5.22-1.22,7.78-1.38.32.24.65.5,1.03.16.41-.37.13-.68-.13-.98,0-1.15-.83-1.89-1.35-2.78Z"/>
        <path class="cls-25" d="M194.63,354.63c.57-1.15,1.09-2.36,2.75-2.04,1.85,4.04,3.71,8.08,5.56,12.12-.04.58-.09,1.16-.13,1.74-1.93-2.01-1.83-5.16-4.16-7.26.23,4.64,1.61,8.97.78,13.53-.74-3.71-1.47-7.42-2.21-11.14-.13,0-.26.01-.39.02-.18,3.33-.37,6.66-.55,9.99-.29-.01-.58-.03-.87-.04v-8.26c-.18-.02-.37-.04-.55-.06-1.06,3.23-2.12,6.46-3.18,9.68-.31-.07-.63-.14-.94-.22,1.13-6.04,3.27-11.91,3.89-18.05Z"/>
        <path class="cls-31" d="M204.59,313.45c.03,3.62-2.42,4.11-5.23,4.15-.37-.2-.74-.4-1.11-.6-1.39-.16-2.78-.31-4.17-.47-.08-.28-.17-.55-.25-.83,1.03-.25,2.88-.15,2.55-1.47-.55-2.24.94-4.52-.43-6.62,1.64-1.97,4.02-1.68,5.67-.81,2.05,1.08,4.17,2.8,3.66,5.82,0,0,.02-.02.02-.02-.5.07-.69.39-.71.85ZM198.86,310.22c-.9.09-1.47.64-1.47,1.58,0,.8.49,1.39,1.37,1.29.87-.1,1.62-.54,1.59-1.54-.03-.81-.58-1.28-1.49-1.32Z"/>
        <path class="cls-31" d="M182.8,318.03c-.09-2.17-2.1-3.5-2.39-5.69-.18-1.37-1.83-.8-2.89-.82.52-1.4,1.65-2.41,1.96-4.05.35-1.89,3.87-2.76,5.27-1.39.89.88,1.8.8,2.78.9,1.73.97-.61,3.98,2.21,4.4l-.03-.03c-.31,1.18.54,2.98-1.68,3.14-1.06.04-2.07.16-1.98,1.62-.2.24-.41.48-.61.72-.88.4-1.76.8-2.64,1.2ZM185.31,311.05c-.12-.81-.52-1.42-1.36-1.36-1.07.08-1.59.82-1.62,1.87-.02.74.36,1.17,1.1,1.12,1.02-.06,1.72-.56,1.88-1.64Z"/>
        <path class="cls-30" d="M188.04,314.49c2.22-.16,1.36-1.96,1.68-3.14.5,0,1.01.06,1.49-.05.69-.15,1.42-.43,1.37-1.3-.02-.29-.44-.68-.76-.8-.76-.29-1.4.05-1.75.74-.21.43-.22.96-.32,1.44-2.82-.42-.48-3.44-2.21-4.4-.05-2.06,1.38-2.49,2.99-2.63,1.32-.12,2.72-.23,3.17,1.51.3,1.2,1.33,1.4,2.26,1.76,1.36,2.1-.12,4.38.43,6.62.33,1.32-1.52,1.22-2.55,1.47-.45.04-.9.09-1.35.13-.78-.56-1.3.15-1.93.38-1.65.61-2.55.13-2.51-1.73Z"/>
        <path class="cls-25" d="M192.48,315.84c.45-.04.9-.09,1.35-.13.08.28.17.55.25.83-.59,1.57.04,2.97.63,4.38.59,4.09.73,8.25,2.1,12.23.29-4.48,1.57-8.87.82-13.37.39-.88.77-1.76.62-2.77.37.2.74.4,1.11.6.73,1.89.6,3.86.59,5.82,0,.61-.02,1.28.67,1.6.71.32,1.15-.2,1.61-.6,1.09-.95,2.15-1.93,3.26-2.84.6-.49,1.31-.66,2-.13.89.68.14,1.33-.14,1.9-1.47,2.89-3.55,5.32-6,7.42-1.23,1.05-1.95,2.2-2.1,3.92-.26,3-2.81,5.12-5.81,5.25-1.29.06-1.07-.93-1.25-1.7-.98-4-1.9-8.02-3.44-11.86-1.1-3.18-2.19-6.37-3.29-9.55.2-.24.41-.48.61-.72,2.3,2.45,2.5,5.95,4.28,8.66,1.31,3.98,2.63,7.95,3.94,11.93l.55-.13c-.58-5.06-1.16-10.11-1.74-15.17-.2-1.85-.4-3.7-.6-5.56Z"/>
        <path class="cls-30" d="M175.81,318.59c-1.13.03-1.71-.34-1.67-1.21.06-1.18.81-1.83,1.97-1.9.82-.05,1.46.44,1.44,1.23-.04,1.18-.97,1.66-1.74,1.88Z"/>
        <path class="cls-33" d="M273.96,302.3c-1.07.06-1.7-.21-1.68-1.16.03-1.23.74-1.9,1.94-2,.78-.06,1.53.18,1.52,1.12-.02,1.25-1.01,1.68-1.77,2.03Z"/>
        <path class="cls-33" d="M198.86,310.22c.91.05,1.46.51,1.49,1.32.04,1-.72,1.44-1.59,1.54-.88.11-1.37-.48-1.37-1.29,0-.94.57-1.49,1.47-1.58Z"/>
        <path class="cls-33" d="M185.31,311.05c-.16,1.08-.86,1.57-1.88,1.64-.74.05-1.13-.39-1.1-1.12.03-1.05.55-1.79,1.62-1.87.85-.06,1.25.55,1.36,1.36Z"/>
        <path class="cls-31" d="M189.74,311.38c.1-.48.11-1.01.32-1.44.34-.69.99-1.03,1.75-.74.32.12.75.51.76.8.05.87-.68,1.16-1.37,1.3-.48.1-.99.04-1.49.05l.03.03Z"/>
      </g>
    </g>
    <path class="cls-27" d="M190.33,324.77c1.44-.7,2.56-1.67,2.75-3.38.58,5.07,1.16,10.12,1.74,15.18l-.55.13c-1.31-3.98-2.63-7.95-3.94-11.93Z"/>
    <path class="cls-27" d="M194.71,320.91c.97-.38,1.95-.76,2.92-1.14.76,4.5-.53,8.89-.82,13.37-1.37-3.98-1.51-8.15-2.1-12.23Z"/>
  </g>
  <g>
    <path class="cls-29" d="M709.28,570.1c-2.57,1.55-4.85.77-7.24-.64-4.71-2.77-7.52-7.31-10.96-11.27-.51-.59-.72-1.7-1.77-1.45-1.21.29-.95,1.45-1,2.33-.45,8.47-.96,16.94-.87,25.43.04,3.09-.31,6.2-.6,9.28-.17,1.76-1.05,3.32-2.85,3.67-1.66.33-2.62-1.17-3.3-2.39-1.5-2.7-1.5-5.76-1.62-8.75-.09-2.23-.02-4.46-.31-6.73-1.7,3.25-2.3,6.75-3.02,10.23-.4,1.92-.7,3.89-1.34,5.73-1.05,3.01-3.16,3.34-5.42,1.09-1.45-1.44-1.7-3.21-1.71-5.13-.09-10.88.94-21.68,2.14-32.48.76-6.78,1.36-13.57,3.12-20.19.27-1.01,0-1.88-.42-2.68-1.94-3.81-3.33-7.87-4.06-12.02-2.25-12.77,2.66-22.37,15.88-26.42,8.19-2.51,19.22,2.97,21.85,10.09-.13,1.26-.25,2.51-.38,3.77-2.52,2.12-4.97,1.96-7.39-.2-.61-.55-1.32-1.01-2.03-1.42-6.17-3.55-14.21-.02-14.71,6.57-.26,3.37.44,6.33,1.4,9.38,1.1,3.5,1.14,3.52,3.7,1.15,1.6-1.48,3.5-2.27,5.33-1.03,1.96,1.33,1.07,3.35.21,5.03-.86,1.69-.89,3.23-.2,5.03,3.63,9.47,9.24,17.76,15.29,25.78,1.13,1.5,2.16,3.01,2.66,4.84-.12,1.13-.25,2.26-.37,3.39Z"/>
    <path class="cls-31" d="M709.28,570.1c.12-1.13.25-2.26.37-3.39,5.89-10.11,9.2-21.18,12.23-32.37.47-1.73.39-3.13-.52-4.68-.98-1.66-1.57-3.67.17-5.11,1.77-1.46,3.68-1.04,5.19.72,1.19,1.38,1.88.79,2.37-.58,1.29-3.65,1.92-7.41,1.48-11.28-.55-4.9-4.53-7.41-9.15-5.69-1.53.57-2.95,1.48-4.37,2.32-1.78,1.04-3.42,2.39-5.29,3.21-2.41,1.05-4.88,1.3-6.36-1.67.13-1.26.25-2.51.38-3.77,5.6-7.73,13.07-11.51,22.7-10.74,4.7.37,10.42,5.58,12.05,10.48,2.31,6.94.58,13.49-1.52,20.01-.31.96-.49,1.64-.12,2.54,3.62,8.93,4.67,18.33,5.49,27.84.9,10.41,1.24,20.83,1.7,31.26.09,2.09-.3,4.11-.56,6.16-.12.94-.17,1.97-1.26,2.27-1.17.33-2.01-.42-2.59-1.3-1.7-2.59-1.7-5.68-2.35-8.57-.92-4.14-.33-8.51-1.85-13.1-.9,1.48-.65,2.62-.63,3.68.06,4.88-.56,9.69-1.35,14.48-.25,1.53-.61,3.08-1.59,4.33-1.24,1.57-2.56,1.42-3.3-.38-.62-1.51-1.03-3.18-1.15-4.8-.73-9.89-1.1-19.82-2.11-29.68-.4-3.93-.25-7.02-.7-11.96-.64-3.72-.61-4.06-1.84-5.99.22,3.05.5,6.09-.31,9.07-2.04,6.81-6.2,12.18-11.51,16.73-1.17,1.01-2.47.81-3.7-.04Z"/>
    <path class="cls-33" d="M700.41,525.86c.12-.86.08-2.54,1.95-3.16,1.67-.56,3.13-.16,4.07,1.35,1.01,1.63,1.61.92,2.44-.15,1.05-1.37,2.41-2.47,4.26-1.72,1.71.69,1.77,2.39,1.9,3.94.16,1.91-.27,3.75-1.03,5.44-1.56,3.49-3.26,6.92-4.97,10.35-.57,1.15-1.39,2.49-2.61.63-3.21-4.87-6.07-9.9-5.99-16.67Z"/>
  </g>
  <g>
    <path class="cls-30" d="M271.8,162.62c.88,1.43,2.73,1.83,3.53,3.38.57,1.1,1.42,2.13.69,3.44-.76,1.36-2.06,1.95-3.53,1.91-1.39-.04-2.77-.35-4.16-.53-2.91-1.99-6.25-2.19-9.61-2.36-.08-.02-.16-.04-.25-.05-7.5-.4-7.55-.41-9.39,6.73-1.14,4.44-3.34,8.08-6.87,11.07-4.85,4.1-9.31,8.65-14.62,12.19-.62.42-1.21.93-1.9,1.21-1.25.5-2.58.89-3.75-.23-1.26-1.2-.63-2.5-.02-3.68,1.62-3.16,3.99-5.75,6.38-8.33,1.7-1.84,3.33-3.76,5.15-5.48,4.02-3.78,3.72-8.49,3.09-13.31-.06-.44-.22-.76-.58-1.04-4.45-3.34-6.11-8.2-7.28-13.33-.68-2.99-.72-3.01-3.43-1.43-5.64,3.27-11.06,6.9-16.46,10.56-.83.56-1.7,1.07-2.62,1.45-1.04.43-2.26,1.16-3.21-.02-.82-1.03-.1-2.08.46-3,1.91-3.1,4.53-5.57,7.21-7.96,4.93-4.4,10.13-8.46,15.49-12.32,1.57-1.13,2.98-2.17,1.71-4.66-.97-1.88.33-3.99,2.21-4.65,2.09-.73,3.26.57,3.9,2.17.76,1.89,1.71,1.77,3.2.94,5.86-3.25,12.07-5.73,18.28-8.23-.19.36-.29.82-.57,1.07-3.59,3.2-6.63,6.93-10.08,10.25-1.15,1.11-1.45,2.14-.84,3.51.5,1.13.74,2.39,1.59,3.35.94,3.37,2.53,6.46,4.12,9.54.31.61.59,1.34,1.59,1.34,3.17,0,6.16,1.08,9.23,1.67,3.8,1.57,7.25,3.97,11.36,4.8Z"/>
    <path class="cls-25" d="M245.5,145.27c-.86-.96-1.09-2.22-1.59-3.35-.61-1.37-.31-2.4.84-3.51,3.45-3.33,6.5-7.05,10.08-10.25.28-.25.39-.71.57-1.07,1.02-.93.27-2.06.29-3.09.03-1.47.37-2.74,1.83-3.24,1.4-.47,2.62.36,3.13,1.49,1.05,2.32,2.5,2.03,4.41,1.29,5.69-2.19,11.11-5.04,16.94-6.88,1.59-.5,3.19-1.01,4.83-1.34,1.21-.25,2.61-.46,3.33.96.78,1.54-.17,2.63-1.36,3.34-2.36,1.42-4.78,2.75-7.23,3.99-3.87,1.96-7.78,3.86-11.71,5.7-1.79.84-2.43,1.78-1.54,3.85,1.58,3.67,3.3,7.3,4.37,11.19.35,1.25,1.4,1.85,2.71,2.23,5.44,1.6,10.99,2.92,15.93,5.9,2.82,1.7,5.26,3.81,7.39,6.32.77.9,1.29,1.85.6,2.94-.72,1.14-1.92,1.34-3.11.95-1.9-.62-3.77-1.34-5.64-2.07-4.77-1.86-9.74-2.94-14.76-3.83-1.92-.34-2.97.04-3.12,2.2-.08,1.23-.57,2.42-.88,3.63-4.11-.83-7.57-3.22-11.36-4.8-.08-1.38.22-2.95-.97-3.94-2.02-1.69-2.99-3.95-3.85-6.29-.66-1.79-1.24-3.62-1.81-5.44-.41-1.31-.87-1.72-2.28-.84-2.04,1.27-3.71,3.1-6.02,3.96Z"/>
    <path class="cls-25" d="M258.72,168.46c3.35.17,6.7.37,9.61,2.36-3.13,4.52-6.16,9.12-10.31,12.82-.12.11-.24.24-.37.34-1.42,1.12-2.9,2.85-4.78,1.33-1.85-1.49-.91-3.56-.07-5.27,1.9-3.89,3.94-7.71,5.92-11.57Z"/>
  </g>
  <g>
    <path class="cls-30" d="M266.56,462.08c6.81-3.72,12.66-7.63,18.39-12.91.79-.73,1.64-1.4,2.64-1.82,1.32-1.43,2.64-2.86,3.96-4.3-.17-1.02-.35-2.04-.52-3.07-3.58.84-6.8,2.48-9.85,4.49-.97.64-2.07.97-3.18,1.27-1.45,1.95-3.73,2.52-5.81,3.34-3.56,1.4-7,3.26-10.98,3.29-.58.22-.96.1-1.12-.56-.23-.91-.53-1.79-.73-2.71-.42-1.9-1.55-3.14-3.49-3.23-1.49-.07-3.08,2.25-2.97,4.23.13,2.36.55,4.71.59,7.07.04,2.55.76,5.11.06,7.66.37,3.65,3.68,3.29,5.95,4.21,1.59.65,3.18,1.31,4.7,2.1,1.12.58,2.11,1.46,1.93,2.84-.18,1.44-1.28,2.11-2.64,2.48-3.45.93-6.83.24-10.22-.36-.55,3.05-1.23,6.03-2.58,8.88-3.75,7.93-8.88,15-13.71,22.26-.48.72-.96,1.45-1.28,2.24-.38.94-.63,2.01.2,2.84.86.85,1.9.45,2.84.07.46-.18.85-.53,1.26-.81,5.4-3.77,9.43-8.9,13.57-13.88,2.94-3.53,5.69-7.24,7.52-11.52l.69-.61c.67-.13,1.23,0,1.54.69,2.42-.06,4.02,1.75,5.97,2.72,3.83,1.91,3.84,2.08,1.05,5.22-4.73,5.33-9.6,10.52-14.11,16.05.18,2.8,1.29,3.85,3.09,2.7,7.47-4.77,14.55-10.12,20-17.16,3.14-4.06,3.77-8.26-.64-12.31-.3-.28-.46-.7-.69-1.06-3.23-2.36-6.3-5.02-8.71-8.15-1.6-2.08-1.7-5.1-2.25-7.76-.2-.97.06-2.24-1.23-2.75"/>
    <path class="cls-33" d="M277.99,482.44c-3.23-2.36-6.3-5.02-8.71-8.15-1.6-2.08-1.7-5.1-2.25-7.76-.2-.97.06-2.24-1.23-2.75.09-.45.5-.87.15-1.37,6.81-3.72,13.26-7.96,18.98-13.23.79-.73,1.64-1.4,2.64-1.82,2.5.52,4.99,1.04,7.78,1.62-1.18-2.33-2.47-4.14-3.82-5.91-.17-1.02-.35-2.04-.52-3.07,1.8-1.65,3.24-.54,4.49.73,2.99,3.05,5.26,6.68,7.77,10.12,1.01,1.38,2.7,2.75,1.57,4.8-1.09,1.98-3.14,1.52-4.87,1.47-4.9-.14-9.81-.32-14.7-.67-2.03-.15-2,.4-1.25,1.94,3.24,6.68,7.18,13.02,9.82,20,1.41,3.73,2.03,7.49,1,11.44-1.69,6.49-3.31,13-4.98,19.51-.12.49-.32.96-.55,1.41-.45.9-1.17,1.53-2.21,1.49-1.11-.05-1.59-.96-1.84-1.87-.48-1.76-.43-3.58-.41-5.38.06-4.62.12-9.24.31-13.86.11-2.82-.26-5.44-1.89-7.83-1-1.48-1.86-3.05-2.92-4.81-.88,1.47-1.63,2.73-2.38,3.98Z"/>
    <path class="cls-33" d="M263.32,486.27c2.42-.06,4.02,1.75,5.97,2.72,3.83,1.91,3.84,2.08,1.05,5.22-4.73,5.33-9.6,10.52-14.11,16.05-1.27,1.08-2.76,1.76-4.24,2.47-1.11.53-2.3.68-3.18-.34-.84-.97-.37-2.07.2-3.01,1.8-2.96,4.03-5.59,6.29-8.2,3.79-4.37,5.97-9.61,8.02-14.91Z"/>
    <path class="cls-33" d="M253.54,464.85c.37,3.65,3.68,3.29,5.95,4.21,1.59.65,3.18,1.31,4.7,2.1,1.12.58,2.11,1.46,1.93,2.84-.18,1.44-1.28,2.11-2.64,2.48-3.45.93-6.83.24-10.22-.36-3.27-2.62-3.43-3.56-1.47-7.16.71-1.3,1.17-2.74,1.75-4.12Z"/>
    <path class="cls-33" d="M278,445.75c-1.45,1.95-3.73,2.52-5.81,3.34-3.56,1.4-7,3.26-10.98,3.29.69-1.65,2.05-2.74,3.33-3.88,1.01-.89,1.28-1.71.52-2.94-.94-1.52-1.27-3.15.53-4.33,1.18-.78,3.34,0,4.09,1.74.84,1.94,2.14,2.39,4.04,2.35,1.42-.03,2.85.27,4.27.43Z"/>
  </g>
  <g>
    <path class="cls-17" d="M856.27,407.77c.09.07.24.21.3.43.1.38-.13.72-.26.89-.63.9-2.38.82-2.56.81-.88.23-2.18.56-3.75.98-1.54.41-2.31.61-2.93.8-1.38.4-4.23,1.38-6.61,2.53-1.83-.37-3.33-.24-3.29-3.27.04-2.53,1.44-4.24,3.69-4.85,2.28-.61,5.27-2.92,7.31-4.54,1.6,1.6,9.05.1,8.09,6.22Z"/>
    <path class="cls-17" d="M846.12,400.72c2.93-2.83,7.65-3.43,9.53-7.63.18-.4,1.56-.78,1.68-.62,4.19,5.27,8.45.41,12.65.13,4.58-.3,6.96,1.25,5.21,6.21-1.23,3.49-2.44,7-3.92,10.38-.46,1.05-.99,2.92-2.55,2.58-1.94-.42-1.78-2.2-1.49-3.81.31-1.73.54-3.46.89-5.7-4.04-.04-5.08,2.74-5.07,6.52.02,5.22-.42,4.51.58,13.85.06.6.34,1.18.82,1.55,2.55,1.94,3.8-1.63,5.13-3.31s3.46-4.69,5.11-3.24c2.04,1.79.6,5.33-.51,6.76-2.91,3.71-5.78,9.5-10.93,9.48-2.04,0-3.7-1.87-3.7-3.91,0-1.41,0-2.25,0-3.17,0-1.91-2.17-3.09-3.73-1.98-.68.48-1.3,1.06-2.07,1.84-3.88,3.66-4.41,8.75-6.87,12.89-.76,1.28-1.69,2.99-4.27,1.79-1.93-.89-1.53-2.99-1.38-4.69.23-2.52.79-5.01,1.13-7.52l2.58-6.11c2.74-3.39,4.92-6.97,3.9-11.64.79-.17,1.56-.38,2.29-.67,2.18-.85,3.72-2.92,3.93-5.25.23-2.61-1.5-2.67-7.75-2.19l-1.21-2.56Z"/>
    <path class="cls-16" d="M840.9,414.69c.23-.39-.03-.88-.47-.93-1.61-.19-3.28-.29-3.24-2.83.04-2.54,1.43-4.23,3.68-4.84,2.28-.61,2.24-.2,5.31-1.12,1.07-.59,1.55-.31,1.55-1.57,0-.49-.17-.97-.52-1.32-.39-.4-.79-.69-1.17-1.25-2.8-2.33-6.31-4.35-7.27-8.22-.32-1.28-1.93-1.69-2.81-.71-1.27,1.41-2.5,3.22-4.8,1.58-3.1-2.21-3.56-4.66-3.32-7.87.2-2.86.53-5.74.29-8.55-.17-2-1.12-4.24-3.86-2.08-3.52,2.79-5.66,18.79-3.1,22.6,6.52,9.71,6.38,14.46-.35,23.56-3.19,4.31-4.86,9.37-6.14,14.52-.39,1.49-.53,3.15,1.15,4.11,2.17,1.24,3.27-.47,4.27-1.84,2.6-3.54,5.07-7.17,7.61-10.75.01-.04.03-.08.04-.11,3.66.25,3.68,6.4,8.06,5.56l5.47-2.08c.61-.24,1.11-.72,1.33-1.33.67-1.79,1.33-3.58,2-5.35.13-.36-.13-.75-.51-.75-1.8.04-2.99,1.53-4.72.52-.01,0-.04-.02-.07-.05-.89-.65-1.2-1.83-.8-2.85l2.4-6.03Z"/>
  </g>
  <g>
    <path class="cls-14" d="M592.3,81.53c-8.71,5.19-10.12,7.81-4.84,16.37,3.13,5.08,2.87,9.5-.67,14.01-2.18,2.78-4.21,5.71-6.63,8.28-1.24,1.32-2.94,3.28-5.1,1.95-2.43-1.5-1.54-4.04-.68-5.99,1.24-2.81,2.81-5.52,4.54-8.06,2.1-3.09,1.29-6.04-1.5-7.18-3.22-1.31-2.76,2.51-3.5,4.24-3.15,7.34-5.06,7.86-10.68,2.37-3.13-3.06-7.35-4.74-10.05-8.35-1.28-1.72-2.42-3.28-.99-5.3,1.63-2.3,3.56-.93,5.31-.11,2.57,1.21,5.08,2.55,8.17,4.12,1.34-7.3.96-13.92-3.77-19.35-4.54-5.21-5.03-11.52-6.13-17.74-.27-1.51-.39-3.26,1.41-4.01,2.09-.87,3.5.48,4.27,2.12,1.86,3.99,3.06,8.34,5.34,12.06,1.26,2.05,3.2,11.38,6.77,2.72.51-1.24,1.97-.85,2.27-.44,7.21,9.71,10.69,2.02,15.06-2.26.82-.81,1.42-1.64,2.71-1.31-.92,3.99-2.2,7.58-1.3,11.86Z"/>
    <path class="cls-28" d="M592.47,82.21c-.49-.27-.85-.74-.92-1.3-.5-3.93,1.2-7.52,2.05-11.24.17-.41.29-.85.53-1.21,1.83-2.74,2.56-8.02,6.82-6.46,3.74,1.37,1.25,5.94.74,8.92-.52,3-.1,4.88,2.38,6.8,2.89,2.23,3.04-.35,4.3-2.08.33-.45,1.93-1.08,2.58.03,3.4,5.82,6.88-.83,10.39-1.61,5.92-1.3,9.71,2.07,12.85,6.21,1.9,2.49,0,3.73-2.4,3.54-1.69-.14-3.27-1.27-4.97-1.67-5.18-1.22-8.85,1.8-8.66,7.06.08,2.21.34,4.41.4,6.61.09,3.37,1.36,4.09,4.56,2.77,2.98-1.23,7.23-4.64,9.11-.2,1.41,3.32-3.39,4.46-5.96,6.25-.38.26-.76.55-1.16.78-11.02,6.37-12.15,6.59-17.6-2.73-1.41-2.41-.91-1.91-.51-2.49.61-.91,1.66-1.36.52-1.29-2.04.11-6.44-.64-5.47,4.2.66,3.28,1.4,6.55,2.11,9.82.14.63-.06,1.29-.54,1.72-2.59,2.31-4.2.07-5.55-2.26-2.8-4.83-4.2-10.21-5.25-15.61-1.22-6.27.4-7.71,6.64-6.45.02,0,.03,0,.05.01,1.97.42,3.14-2.1,1.48-3.24-2.72-1.86-5.66-3.31-8.51-4.86Z"/>
    <path class="cls-19" d="M604.15,113.64c-.78-3.59-1.38-6.96-2.11-10.56-.98-4.84,3.43-4.09,5.47-4.2,1.28-.07.52,1.18-.17,2.16-.37.52-1,.8-1.63.74-.97-.09-1.97-.23-1.49,1.78.81,3.41.63,6.64-.06,10.08Z"/>
  </g>
</svg>