<?xml version="1.0" encoding="UTF-8"?>
<svg id="A_x2B_" xmlns="http://www.w3.org/2000/svg" viewBox="0 0 234.17 410.48">
  <defs>
    <style>
      .cls-1 {
        fill: #fad8de;
        stroke: #ede2e3;
      }

      .cls-1, .cls-2, .cls-3, .cls-4 {
        stroke-miterlimit: 10;
      }

      .cls-5 {
        fill: #b51922;
      }

      .cls-2 {
        fill: #fff;
        stroke: #dbd9d9;
      }

      .cls-3 {
        fill: #efefed;
        stroke: #fbfbfb;
      }

      .cls-4 {
        fill: none;
        stroke: #fafafa;
      }

      .cls-6 {
        fill: #333331;
        font-family: ArticulatCF-Heavy, 'Articulat CF';
        font-size: 75.51px;
        font-weight: 800;
      }
    </style>
  </defs>
  <g>
    <circle class="cls-3" cx="28.81" cy="342.66" r="6.38"/>
    <circle class="cls-3" cx="205.35" cy="342.64" r="6.38"/>
    <path class="cls-3" d="M233.64,333.38c-2.13-38.65-6.36-64.25-13.59-71.2-1.66-1.59-2.53-3.89-1.94-6.11.08-.28.17-.57.27-.84l3.19-8.79c1.57-4.31,2.39-8.85,2.43-13.43l.93-101.23c.02-1.73-.47-3.43-1.4-4.89l-1.36-2.13c-.5-.8-.32-1.84.42-2.42l1.34-1.04c1.96-1.52,3.19-3.79,3.41-6.26l2.6-29.99c.53-6.11.22-12.28-1.12-18.26-3.42-15.22-11.38-22.58-45.03-36.54-8.95-3.72-17.5-8.31-26.26-12.47-2.07-.98-4.32-1.51-6.62-1.51h-12.25v-5.72c0-2.26-1.72-4.14-3.97-4.34l-4.45-.4-11.68-5.01c-.94-.4-2.01-.4-2.95,0l-11.67,5.01-4.46.4c-2.25.2-3.97,2.08-3.97,4.34v5.72h-12.25c-2.29,0-4.55.53-6.62,1.51-8.75,4.16-17.31,8.75-26.26,12.47C16.73,44.21,8.77,51.57,5.36,66.8c-1.34,5.98-1.65,12.15-1.12,18.25l2.6,29.99c.21,2.47,1.44,4.74,3.4,6.26l1.34,1.04c.74.58.92,1.62.42,2.42l-1.36,2.13c-.93,1.46-1.42,3.16-1.4,4.89l.93,101.23c.04,4.58.87,9.12,2.43,13.43l3.2,8.79c.1.27.19.56.26.84.59,2.22-.28,4.52-1.93,6.11-7.23,6.95-11.47,32.55-13.6,71.2-.99,20.08,21.51,26.04,60.18,22.28,2.28-.22,4.59.46,6.31,1.97,3.74,3.28,6.27,8.11,6.13,16.39-.03,1.23.95,2.25,2.19,2.25h8.92c.93,0,1.73.76,1.76,1.7l.02.53c.1,2.05.95,3.72.03,5.56l-2.2.63c-.98.27-1.8.84-2.4,1.6-.58.76-.94,1.71-.95,2.72l-.29,18.46c-.02,1.38,1.09,2.51,2.47,2.51h14.6c1.13,0,2.04-.91,2.04-2.04v-21.12c0-1.43-1.18-2.57-2.59-2.76-.81-.11-1.45-.75-1.56-1.57l-.19-1.37-.15-2.88c-.06-1.07.79-1.97,1.86-1.98l15.08-.11c.53,0,.96.43.96.96v1.65c0,1.33-.36,2.65-1.03,3.8-.42.72-1.19,1.14-2.02,1.17-.65.02-1.23.29-1.64.73-.42.43-.68,1.02-.68,1.66v21.88c0,1.09.89,1.98,1.98,1.98h15.45c1.09,0,1.98-.89,1.98-1.98v-21.88c0-.64-.26-1.23-.67-1.66-.42-.44-1-.71-1.65-.73-.83-.03-1.6-.45-2.02-1.17-.67-1.16-1.02-2.47-1.02-3.8v-1.65c0-.53.43-.96.96-.96l15.07.11c1.07.01,1.92.91,1.86,1.98l-.15,2.88-.18,1.37c-.12.82-.76,1.46-1.57,1.57-1.41.2-2.59,1.34-2.59,2.77v21.1c0,1.13.92,2.05,2.04,2.05h14.6c1.38,0,2.49-1.13,2.47-2.51l-.29-18.46c-.02-1.01-.36-1.96-.96-2.72-.58-.76-1.42-1.33-2.39-1.6l-2.19-.63c-.92-1.84-.08-3.51.02-5.56l.03-.56c.05-.94.82-1.67,1.76-1.67h8.92c1.23,0,2.21-1.02,2.19-2.25-.15-8.28,2.38-13.11,6.12-16.39,1.72-1.51,4.03-2.19,6.31-1.97,38.67,3.76,61.18-2.2,60.18-22.28ZM103.51,14.27c0-.86.49-1.63,1.27-2l10.1-4.78c1.39-.66,3.01-.63,4.37.08l10.28,4.88c.84.4,1.3,1.31,1.12,2.22l-.11.6c-.08.38-.42.66-.81.66h-25.03c-.65,0-1.19-.53-1.19-1.19v-.47ZM62.97,348.82c-11.24,1.95-23.29,2.68-36.59,1.51-6.77-.6-13.17-3.72-17.42-9.03-2.6-3.26-3.55-6.35-2.03-9.2,1.25-2.35,4.09-3.39,6.65-2.66,18.27,5.26,34.98,10.89,49.66,17,1.15.48.96,2.17-.27,2.38ZM84.02,361.85c0,2.1-1.72,3.83-3.83,3.83h-.76c-2.11,0-3.83-1.73-3.83-3.83v-7.15c0-2.11,1.72-3.83,3.83-3.83h.76c2.11,0,3.83,1.72,3.83,3.83v7.15ZM111.09,366.63c0,2.11-1.73,3.83-3.83,3.83h-7.92c-2.1,0-3.83-1.72-3.83-3.83v-18.7c0-2.1,1.73-3.83,3.83-3.83h7.92c2.1,0,3.83,1.73,3.83,3.83v18.7ZM138.21,366.63c0,2.11-1.72,3.83-3.83,3.83h-7.91c-2.11,0-3.83-1.72-3.83-3.83v-18.7c0-2.1,1.72-3.83,3.83-3.83h7.91c2.11,0,3.83,1.73,3.83,3.83v18.7ZM158.13,361.85c0,2.1-1.72,3.83-3.83,3.83h-.77c-2.1,0-3.83-1.73-3.83-3.83v-7.15c0-2.11,1.73-3.83,3.83-3.83h.77c2.11,0,3.83,1.72,3.83,3.83v7.15ZM144.83,40.37c-3.71-.18-7.43.31-10.98,1.43l-8.98,2.83-.13.04c-4.74,1.47-9.81,1.51-14.58.11l-9.45-2.98c-3.55-1.12-7.27-1.61-10.99-1.43l-42.96,2.05c-.86.04-1.64-.51-1.9-1.33l-.03-.11c-.21-.68.14-1.42.81-1.67l36.4-13.77c3.39-1.29,6.99-1.95,10.62-1.95h49.23c3.63,0,7.23.66,10.63,1.95l36.39,13.77c.67.25,1.03.99.82,1.67l-.04.11c-.26.82-1.03,1.37-1.89,1.33l-42.97-2.05ZM225.2,341.27c-4.25,5.32-10.65,8.44-17.43,9.03-13.29,1.18-25.34.45-36.58-1.5-1.23-.21-1.42-1.9-.27-2.38,14.68-6.11,31.39-11.74,49.66-17,2.56-.73,5.4.31,6.65,2.66,1.52,2.85.57,5.94-2.03,9.19Z"/>
    <circle class="cls-3" cx="83.63" cy="33.09" r="5.61"/>
    <circle class="cls-3" cx="83.63" cy="33.09" r="4.04"/>
    <circle class="cls-3" cx="150.93" cy="33.09" r="5.61"/>
    <circle class="cls-3" cx="28.81" cy="342.66" r="4.66"/>
    <circle class="cls-3" cx="205.35" cy="342.64" r="4.66"/>
  </g>
  <path class="cls-1" d="M211.68,323.92c-25.37,8.3-52.85,17.67-61.83,17.72-1.28.01-2.41.83-2.87,2.03l-.41,1.06v21.98c0,2.01.32,4.01.95,5.92l.52,1.6c.34,1.04-.44,2.11-1.53,2.11h-5.5c-1.12,0-1.89-1.13-1.49-2.18l.81-2.12c.58-1.52.89-3.12.9-4.75l.22-22.84c.01-.82-.19-1.63-.59-2.35-.41-.74-1.2-1.2-2.04-1.2h-16.53c-.61,0-1.17.34-1.44.88-.38.76-.58,1.6-.59,2.45l-.22,23.72c-.01,1.52.29,3.03.89,4.43l.78,1.8c.32.75-.23,1.58-1.04,1.58l-3.58.03v.4l-3.59-.03c-.81,0-1.36-.84-1.03-1.58l.77-1.8c.6-1.4.9-2.91.89-4.43l-.22-23.72c-.01-.85-.21-1.69-.59-2.45-.27-.54-.83-.89-1.44-.89h-16.53c-.84,0-1.62.46-2.04,1.2-.4.72-.6,1.54-.59,2.36l.22,22.84c.01,1.63.32,3.23.9,4.75l.81,2.12c.4,1.05-.37,2.17-1.49,2.17h-5.5c-1.09,0-1.87-1.06-1.53-2.1l.53-1.6c.62-1.91.94-3.91.94-5.92v-21.99l-.41-1.06c-.46-1.19-1.59-2.01-2.87-2.02-8.98-.06-36.46-9.42-61.83-17.72-7.54-2.52-15.7-1.79-11.69-21.78,2.59-12.91,5.17-32.29,13.78-42.8,0,0,.96-1.5.67-2.57-.09-.27-.64-1.8-.64-1.8-3.55-9.97-5.73-19.31-5.8-29.89l-.63-95.12c-.02-2.25.29-4.54,1.28-6.56.63-1.28.46-2.8-.43-3.92-2.67-3.34-3.97-7.59-4.39-11.85l-2.16-21.58c-.57-5.73-.06-11.55,1.76-17.02,3.96-11.95,11.18-15.4,30.72-17.67l40.38-2.88c3.71-.27,7.43,0,11.04.78,3.89.84,7.43,2.77,10.54,5.24,3.12,2.47,2.53,2.67,6.58,3.23.15.04,7.93.12,7.93.12,4.21-.32,2.7-1.28,5.82-3.75,3.11-2.47,6.65-4.4,10.54-5.24,3.61-.78,7.33-1.05,11.04-.78l40.38,2.88c19.54,2.27,26.76,5.72,30.72,17.67,1.82,5.47,2.33,11.29,1.76,17.02l-2.16,21.58c-.42,4.26-1.72,8.51-4.39,11.85-.89,1.12-1.06,2.65-.43,3.93.99,2.02,1.3,4.31,1.28,6.56l-.63,95.11c-.07,10.58-2.25,19.92-5.8,29.89,0,0-.54,1.53-.64,1.8-.29,1.07.67,2.57.67,2.57,8.61,10.51,11.19,29.89,13.78,42.81,4.01,19.98-4.15,19.25-11.69,21.77Z"/>
  <path class="cls-5" d="M212.56,263.69c-.1.03-.2.06-.3.09-12.96,3.17-23.37-10.83-33.14-16.8-14.06-8.59-25.93,1.86-36.71,10.52-5.63,4.53-11.4,8.97-18.25,11.5-8.44,3.12-15.96,1.72-24.09-1.42-10.22-3.95-20.73-5.04-31.62-5.24-5.02-.09-10.07-.3-15.04.52-4.53.75-8.99,1.87-13.56,2.44-6.47.8-11.85-.33-16.53-3.91-7.61,10.79-10.08,28.87-12.53,41.13-4.01,19.99,4.15,19.26,11.69,21.78,25.37,8.3,52.85,17.66,61.83,17.72,1.28,0,2.41.83,2.87,2.02l.41,1.06v21.99c0,2.01-.32,4.01-.94,5.92l-.53,1.6c-.34,1.04.44,2.1,1.53,2.1h5.5c1.12,0,1.89-1.12,1.49-2.17l-.81-2.12c-.58-1.52-.89-3.12-.9-4.75l-.22-22.84c-.01-.82.19-1.64.59-2.36.42-.74,1.2-1.2,2.04-1.2h16.53c.61,0,1.17.35,1.44.89.38.76.58,1.6.59,2.45l.22,23.72c.01,1.52-.29,3.03-.89,4.43l-.77,1.8c-.33.74.22,1.58,1.03,1.58l3.59.03v-.4l3.58-.03c.81,0,1.36-.83,1.04-1.58l-.78-1.8c-.6-1.4-.9-2.91-.89-4.43l.22-23.72c.01-.85.21-1.69.59-2.45.27-.54.83-.88,1.44-.88h16.53c.84,0,1.63.46,2.04,1.2.4.72.6,1.53.59,2.35l-.22,22.84c-.01,1.63-.32,3.23-.9,4.75l-.81,2.12c-.4,1.05.37,2.18,1.49,2.18h5.5c1.09,0,1.87-1.07,1.53-2.11l-.52-1.6c-.63-1.91-.95-3.91-.95-5.92v-21.98l.41-1.06c.46-1.2,1.59-2.02,2.87-2.03,8.98-.05,36.46-9.42,61.83-17.72,7.54-2.52,15.7-1.79,11.69-21.77-2.26-11.3-4.52-27.53-10.81-38.46Z"/>
  <path class="cls-2" d="M47.17,108.94l1.92,15.4c.58,4.67,1.08,7.12.68,10.61-.19,1.69-1.05,3.26-1.18,4.96-.75,10.32-.14,69.92-.08,94.39-.01.71.03,1.41.14,2.11l.82,5.53c.52,3.54.59,7.12.2,10.68l-2.42,22.11c-.28,2.57,1.66,4.85,4.24,4.99l35.95,1.9c.1,0,.21,0,.31,0l81.61-1.35c.15,0,.3,0,.44.01l13.4,1.1c1.53.13,2.82-1.12,2.75-2.66l-1.47-32.08c-.01-.32,0-.64.06-.95l3.29-19.5c.46-2.73.64-5.5.54-8.27l-3.08-83.36c-.01-.28,0-.56.05-.84l3.75-24.85c.28-1.82-1.09-3.49-2.94-3.57l-39.7-1.73c-.28-.01-.55,0-.83.04l-23.92,3.38c-.37.05-.75.06-1.12.02l-31.02-3.42c-.23-.03-.46-.03-.69-.02l-38.65,1.72c-1.88.08-3.28,1.75-3.05,3.61Z"/>
  <text class="cls-6" transform="translate(63.75 219.05)"><tspan x="0" y="0">A+</tspan></text>
  <circle class="cls-4" cx="150.93" cy="33.09" r="4.04"/>
</svg>